<svg xmlns:xlink="http://www.w3.org/1999/xlink" width="101" height="97" viewBox="0 0 101 97" fill="none" xmlns="http://www.w3.org/2000/svg">
<g clip-path="url(#clip0)" fill="none">
<path d="M91.5216 96.9032V87.1755C91.5216 87.1755 95.3126 94.072 91.5216 96.9032Z" fill="#F1F1F1"></path>
<path d="M91.7557 96.9016L84.5897 90.3231C84.5897 90.3231 92.2338 92.1943 91.7557 96.9016Z" fill="#F1F1F1"></path>
<path d="M66.481 42.9218L28.4545 65.147C28.3214 65.2245 28.163 65.2462 28.014 65.2071C27.865 65.168 27.7375 65.0714 27.6596 64.9385L3.20611 23.0993C3.12853 22.9662 3.1069 22.8078 3.14598 22.6588C3.18506 22.5097 3.28166 22.3823 3.41457 22.3044L41.4411 0.0792799C41.5742 0.00169611 41.7326 -0.0199275 41.8816 0.0191529C42.0306 0.0582333 42.1581 0.154827 42.236 0.287742L66.6895 42.1269C66.7671 42.26 66.7887 42.4185 66.7496 42.5675C66.7105 42.7165 66.6139 42.8439 66.481 42.9218Z" fill="#FFFFFF"></path>
<path d="M66.481 42.9218L28.4545 65.147C28.3214 65.2245 28.163 65.2462 28.014 65.2071C27.865 65.168 27.7375 65.0714 27.6596 64.9385L3.20611 23.0993C3.12853 22.9662 3.1069 22.8078 3.14598 22.6588C3.18506 22.5097 3.28166 22.3823 3.41457 22.3044L41.4411 0.0792799C41.5742 0.00169611 41.7326 -0.0199275 41.8816 0.0191529C42.0306 0.0582333 42.1581 0.154827 42.236 0.287742L66.6895 42.1269C66.7671 42.26 66.7887 42.4185 66.7496 42.5675C66.7105 42.7165 66.6139 42.8439 66.481 42.9218ZM3.53186 22.5051C3.45211 22.5518 3.39415 22.6283 3.3707 22.7177C3.34725 22.8071 3.36023 22.9022 3.40678 22.982L27.8603 64.8212C27.907 64.901 27.9835 64.9589 28.0729 64.9824C28.1623 65.0058 28.2574 64.9928 28.3372 64.9463L66.3637 42.7211C66.4435 42.6744 66.5015 42.598 66.5249 42.5085C66.5483 42.4191 66.5354 42.3241 66.4888 42.2442L42.0353 0.405018C41.9886 0.325265 41.9121 0.267306 41.8227 0.243857C41.7333 0.220409 41.6382 0.233385 41.5584 0.279941L3.53186 22.5051Z" fill="#3F3D56"></path>
<path d="M27.9754 26.6717L18.544 32.184C18.411 32.2616 18.2525 32.2832 18.1035 32.2441C17.9545 32.2051 17.8271 32.1085 17.7492 31.9756L12.2369 22.5442C12.1593 22.4111 12.1377 22.2527 12.1767 22.1036C12.2158 21.9546 12.3124 21.8272 12.4453 21.7493L21.8767 16.237C22.0098 16.1594 22.1682 16.1378 22.3172 16.1769C22.4663 16.2159 22.5937 16.3125 22.6716 16.4455L28.1839 25.8768C28.2615 26.0099 28.2831 26.1684 28.244 26.3174C28.2049 26.4664 28.1083 26.5938 27.9754 26.6717V26.6717ZM12.5626 21.95C12.4829 21.9967 12.4249 22.0732 12.4015 22.1626C12.378 22.252 12.391 22.347 12.4375 22.4269L17.9498 31.8583C17.9966 31.938 18.073 31.996 18.1624 32.0194C18.2519 32.0429 18.3469 32.0299 18.4268 31.9834L27.8581 26.471C27.9379 26.4243 27.9959 26.3479 28.0193 26.2584C28.0428 26.169 28.0298 26.074 27.9832 25.9941L22.4709 16.5627C22.4242 16.483 22.3477 16.425 22.2583 16.4016C22.1689 16.3781 22.0738 16.3911 21.994 16.4377L12.5626 21.95Z" fill="#F2F2F2"></path>
<path d="M25.9408 29.4089L16.5094 34.9212C16.3896 34.991 16.247 35.0104 16.1129 34.9753C15.9788 34.9401 15.8641 34.8532 15.794 34.7335L10.2817 25.3022C10.2119 25.1824 10.1924 25.0398 10.2276 24.9057C10.2627 24.7716 10.3497 24.6569 10.4693 24.5868L19.9007 19.0745C20.0205 19.0047 20.1631 18.9852 20.2972 19.0204C20.4313 19.0555 20.546 19.1425 20.6161 19.2621L26.1284 28.6935C26.1982 28.8132 26.2177 28.9558 26.1825 29.09C26.1473 29.2241 26.0604 29.3388 25.9408 29.4089V29.4089Z" fill="#3166CD"></path>
<path d="M48.705 22.2959L19.2069 39.5365C19.0871 39.6065 18.9445 39.626 18.8103 39.5908C18.6762 39.5557 18.5615 39.4686 18.4915 39.3489C18.4215 39.2291 18.402 39.0865 18.4372 38.9523C18.4723 38.8182 18.5594 38.7035 18.6791 38.6335L48.1772 21.3929C48.2365 21.3582 48.3021 21.3356 48.3701 21.3263C48.4382 21.3169 48.5074 21.3211 48.5738 21.3385C48.6402 21.3559 48.7026 21.3863 48.7573 21.4278C48.812 21.4693 48.858 21.5212 48.8926 21.5805C48.9273 21.6398 48.9499 21.7053 48.9593 21.7734C48.9686 21.8414 48.9644 21.9106 48.947 21.977C48.9296 22.0435 48.8992 22.1058 48.8577 22.1605C48.8162 22.2152 48.7643 22.2612 48.705 22.2959V22.2959Z" fill="#CCCCCC"></path>
<path d="M43.3992 29.5698L21.0248 42.6469C20.9655 42.6815 20.8999 42.7042 20.8319 42.7135C20.7639 42.7228 20.6946 42.7186 20.6282 42.7012C20.4941 42.666 20.3794 42.579 20.3094 42.4592C20.2394 42.3395 20.2198 42.1969 20.255 42.0627C20.2902 41.9285 20.3772 41.8138 20.497 41.7439L42.8714 28.6668C42.9307 28.6321 42.9963 28.6095 43.0643 28.6002C43.1324 28.5909 43.2016 28.595 43.268 28.6124C43.3344 28.6299 43.3968 28.6602 43.4515 28.7017C43.5062 28.7432 43.5522 28.7951 43.5868 28.8544C43.6215 28.9137 43.6441 28.9792 43.6534 29.0473C43.6628 29.1153 43.6586 29.1845 43.6412 29.251C43.6238 29.3174 43.5934 29.3797 43.5519 29.4344C43.5104 29.4892 43.4585 29.5351 43.3992 29.5698V29.5698Z" fill="#CCCCCC"></path>
<path d="M41.9196 10.9165L28.8762 18.5399C28.7565 18.6099 28.6138 18.6294 28.4797 18.5942C28.3455 18.5591 28.2308 18.472 28.1608 18.3523C28.0908 18.2325 28.0713 18.0899 28.1065 17.9557C28.1416 17.8216 28.2287 17.7069 28.3484 17.6369L41.3918 10.0135C41.5116 9.94349 41.6542 9.92394 41.7884 9.95912C41.8548 9.97655 41.9172 10.0069 41.9719 10.0484C42.0266 10.0899 42.0726 10.1418 42.1072 10.2011C42.1419 10.2604 42.1645 10.3259 42.1738 10.394C42.1832 10.462 42.179 10.5312 42.1616 10.5976C42.1442 10.6641 42.1138 10.7264 42.0723 10.7811C42.0308 10.8358 41.9789 10.8818 41.9196 10.9165Z" fill="#CCCCCC"></path>
<path d="M40.4823 15.9294L30.6941 21.6502C30.6348 21.6849 30.5692 21.7075 30.5012 21.7168C30.4332 21.7262 30.364 21.722 30.2975 21.7046C30.2311 21.6871 30.1687 21.6568 30.114 21.6153C30.0593 21.5738 30.0133 21.5219 29.9787 21.4626C29.944 21.4033 29.9214 21.3378 29.9121 21.2697C29.9027 21.2017 29.9069 21.1325 29.9243 21.066C29.9418 20.9996 29.9721 20.9373 30.0136 20.8826C30.0551 20.8279 30.107 20.7819 30.1663 20.7472L39.9545 15.0264C40.0743 14.9564 40.2169 14.9368 40.3511 14.972C40.4852 15.0072 40.5999 15.0942 40.6699 15.214C40.7399 15.3337 40.7594 15.4764 40.7243 15.6105C40.6891 15.7447 40.602 15.8594 40.4823 15.9294Z" fill="#CCCCCC"></path>
<path d="M52.3408 28.5166L22.8426 45.7572C22.7229 45.8272 22.5802 45.8467 22.4461 45.8115C22.3119 45.7764 22.1972 45.6893 22.1272 45.5696C22.0573 45.4498 22.0377 45.3072 22.0729 45.173C22.1081 45.0389 22.1951 44.9242 22.3149 44.8542L51.813 27.6136C51.9327 27.5436 52.0754 27.524 52.2095 27.5592C52.3437 27.5944 52.4584 27.6814 52.5284 27.8012C52.5984 27.9209 52.6179 28.0636 52.5827 28.1977C52.5475 28.3319 52.4605 28.4466 52.3408 28.5166V28.5166Z" fill="#CCCCCC"></path>
<path d="M47.0349 35.7905L24.6605 48.8676C24.6012 48.9022 24.5357 48.9249 24.4676 48.9342C24.3996 48.9435 24.3304 48.9393 24.264 48.9219C24.1975 48.9045 24.1352 48.8742 24.0805 48.8327C24.0258 48.7911 23.9798 48.7392 23.9451 48.68C23.9105 48.6207 23.8878 48.5551 23.8785 48.4871C23.8692 48.419 23.8733 48.3498 23.8908 48.2834C23.9082 48.217 23.9385 48.1546 23.98 48.0999C24.0216 48.0452 24.0734 47.9992 24.1327 47.9646L46.5072 34.8875C46.5665 34.8528 46.632 34.8302 46.7 34.8209C46.7681 34.8116 46.8373 34.8157 46.9037 34.8331C46.9702 34.8506 47.0325 34.8809 47.0872 34.9224C47.1419 34.9639 47.1879 35.0158 47.2226 35.0751C47.2572 35.1344 47.2799 35.1999 47.2892 35.268C47.2985 35.336 47.2943 35.4052 47.2769 35.4717C47.2595 35.5381 47.2292 35.6004 47.1876 35.6552C47.1461 35.7099 47.0942 35.7558 47.0349 35.7905V35.7905Z" fill="#CCCCCC"></path>
<path d="M55.9766 34.7372L26.4785 51.9779C26.4192 52.0125 26.3537 52.0352 26.2856 52.0445C26.2176 52.0538 26.1484 52.0496 26.082 52.0322C26.0155 52.0148 25.9532 51.9845 25.8985 51.9429C25.8438 51.9014 25.7978 51.8495 25.7631 51.7902C25.7285 51.731 25.7058 51.6654 25.6965 51.5974C25.6872 51.5293 25.6913 51.4601 25.7088 51.3937C25.7262 51.3273 25.7565 51.2649 25.798 51.2102C25.8396 51.1555 25.8914 51.1095 25.9507 51.0749L55.4489 33.8342C55.5082 33.7996 55.5737 33.7769 55.6417 33.7676C55.7098 33.7583 55.779 33.7624 55.8454 33.7799C55.9119 33.7973 55.9742 33.8276 56.0289 33.8691C56.0836 33.9107 56.1296 33.9625 56.1643 34.0218C56.1989 34.0811 56.2215 34.1467 56.2309 34.2147C56.2402 34.2827 56.236 34.352 56.2186 34.4184C56.2012 34.4848 56.1709 34.5472 56.1293 34.6019C56.0878 34.6566 56.0359 34.7026 55.9766 34.7372V34.7372Z" fill="#CCCCCC"></path>
<path d="M57.7945 37.8476L28.2964 55.0882C28.2371 55.1229 28.1715 55.1455 28.1035 55.1549C28.0355 55.1642 27.9662 55.16 27.8998 55.1426C27.8334 55.1252 27.771 55.0948 27.7163 55.0533C27.6616 55.0118 27.6156 54.9599 27.581 54.9006C27.5463 54.8413 27.5237 54.7758 27.5144 54.7078C27.505 54.6397 27.5092 54.5705 27.5266 54.5041C27.544 54.4376 27.5744 54.3753 27.6159 54.3206C27.6574 54.2659 27.7093 54.2199 27.7686 54.1852L57.2667 36.9446C57.326 36.91 57.3916 36.8873 57.4596 36.878C57.5277 36.8687 57.5969 36.8729 57.6633 36.8903C57.7297 36.9077 57.7921 36.938 57.8468 36.9796C57.9015 37.0211 57.9475 37.073 57.9821 37.1322C58.0168 37.1915 58.0394 37.2571 58.0488 37.3251C58.0581 37.3932 58.0539 37.4624 58.0365 37.5288C58.0191 37.5952 57.9887 37.6576 57.9472 37.7123C57.9057 37.767 57.8538 37.813 57.7945 37.8476V37.8476Z" fill="#CCCCCC"></path>
<path d="M48.2555 49.9558C48.6653 49.4732 49.0342 48.9573 49.3583 48.4134C49.649 47.9227 49.9342 47.3981 49.9983 46.8227C50.031 46.5776 50.0055 46.3283 49.9238 46.095C49.842 45.8617 49.7063 45.6509 49.5278 45.4799C49.3552 45.3209 49.1365 45.2208 48.9033 45.1943C48.6701 45.1678 48.4345 45.2162 48.2307 45.3325C48.0244 45.4509 47.8539 45.6229 47.7374 45.8303C47.6208 46.0376 47.5626 46.2726 47.5687 46.5104C47.5854 46.7722 47.6611 47.0269 47.79 47.2554C47.9189 47.4839 48.0977 47.6804 48.3131 47.8301C49.185 48.4618 50.5467 48.4288 51.476 47.9481C52.5227 47.4066 53.0635 45.99 52.2412 45.0203C52.0701 44.8186 51.7855 45.044 51.8283 45.2616C51.8827 45.5554 52.0472 45.8175 52.2882 45.9942C52.5293 46.1709 52.8287 46.2488 53.1253 46.2122C53.4219 46.1755 53.6934 46.027 53.8842 45.7969C54.0749 45.5669 54.1707 45.2727 54.1519 44.9744L53.7822 45.1905C54.2354 45.3912 54.7335 45.4691 55.2264 45.4162C55.7192 45.3633 56.1895 45.1816 56.5898 44.8893C56.7878 44.7454 56.9647 44.5745 57.1152 44.3815C57.2962 44.1454 57.6002 43.9929 57.8463 43.8228L59.62 42.5972C59.8809 42.417 59.6328 41.9873 59.3698 42.1691L57.7634 43.2791C57.4957 43.464 57.2263 43.6467 56.9602 43.834C56.77 43.968 56.653 44.1841 56.4799 44.3431C56.1523 44.6379 55.7476 44.8334 55.313 44.9069C54.8784 44.9804 54.4319 44.9289 54.0256 44.7583C53.9877 44.738 53.9453 44.7277 53.9023 44.7284C53.8593 44.7292 53.8173 44.741 53.7801 44.7627C53.743 44.7844 53.7121 44.8152 53.6904 44.8523C53.6686 44.8894 53.6567 44.9314 53.6559 44.9744C53.6755 45.1524 53.6239 45.3309 53.5125 45.471C53.4011 45.6112 53.2388 45.7017 53.061 45.7227C52.8832 45.7438 52.7042 45.6937 52.5631 45.5835C52.4221 45.4732 52.3302 45.3117 52.3077 45.1341L51.8949 45.3754C52.4254 46.0009 52.0721 46.9604 51.4609 47.3802C50.7774 47.8496 49.7675 47.9311 48.9971 47.6393C48.8081 47.5742 48.6345 47.4709 48.4873 47.3358C48.34 47.2007 48.2222 47.0367 48.1411 46.854C48.066 46.6889 48.0446 46.5045 48.0799 46.3266C48.1152 46.1487 48.2053 45.9864 48.3377 45.8625C48.4525 45.7492 48.6067 45.6848 48.768 45.6831C48.9293 45.6814 49.0849 45.7424 49.202 45.8533C49.3296 45.9835 49.4232 46.1431 49.4745 46.318C49.5259 46.493 49.5335 46.6778 49.4966 46.8563C49.4171 47.3532 49.1425 47.8113 48.887 48.2356C48.5953 48.7191 48.2653 49.1786 47.9004 49.6095C47.6958 49.8516 48.0488 50.2005 48.2555 49.9558L48.2555 49.9558Z" fill="#3166CD"></path>
<path d="M52.658 61.7464C52.7007 61.7903 52.7399 61.8376 52.7752 61.8877L58.2682 61.7533L58.909 60.5823L60.8026 61.3185L59.8696 63.5017C59.7943 63.6781 59.6637 63.8252 59.4976 63.9211C59.3315 64.0169 59.1387 64.0563 58.9483 64.0333L52.7423 63.2836C52.5959 63.469 52.3965 63.6053 52.1708 63.6746C51.945 63.7439 51.7034 63.7427 51.4783 63.6714C51.2532 63.6001 51.0551 63.4619 50.9104 63.2752C50.7657 63.0885 50.6813 62.8622 50.6684 62.6264C50.6554 62.3906 50.7146 62.1564 50.838 61.955C50.9614 61.7537 51.1432 61.5946 51.3592 61.4991C51.5752 61.4036 51.8151 61.3761 52.0471 61.4202C52.2791 61.4644 52.4922 61.5782 52.658 61.7464V61.7464Z" fill="#FFB7B7"></path>
<path d="M70.5643 95.1057H68.7582L67.8989 88.1391L70.5646 88.1392L70.5643 95.1057Z" fill="#FFB7B7"></path>
<path d="M71.0248 96.8565L65.2012 96.8563V96.7826C65.2012 96.1815 65.44 95.6049 65.8651 95.1799C66.2902 94.7548 66.8667 94.516 67.4679 94.5159H67.468L71.0249 94.5161L71.0248 96.8565Z" fill="#2F2E41"></path>
<path d="M54.164 95.0656L52.5032 94.3559L54.4496 87.6119L56.9009 88.6592L54.164 95.0656Z" fill="#FFB7B7"></path>
<path d="M53.8999 96.8566L48.5444 94.5686L48.5734 94.5009C48.8096 93.9481 49.2557 93.5117 49.8136 93.2878C50.3715 93.0638 50.9955 93.0707 51.5483 93.3068L51.5484 93.3069L54.8194 94.7043L53.8999 96.8566Z" fill="#2F2E41"></path>
<path d="M61.7854 63.2556L61.6547 65.372L65.4724 65.7806L69.467 66.2081L68.2912 62.9943L61.7854 63.2556Z" fill="#FFB7B7"></path>
<path d="M61.5344 65.3992L60.0513 55.06L62.6219 54.2176L63.3769 53.1821L67.0511 53.3995L67.5905 54.6078L69.5496 55.5336L69.2485 61.1251L69.4682 65.8026L61.5344 65.3992Z" fill="#2F2E41"></path>
<path d="M60.6009 62.6285L57.9862 61.5823L57.9974 61.5358C58.0086 61.4889 59.1214 56.8384 59.2692 56.0911C59.4231 55.3125 59.9855 55.0972 60.0094 55.0885L60.0269 55.082L61.0616 55.397L61.5161 58.9678L60.6009 62.6285Z" fill="#2F2E41"></path>
<path d="M55.5092 93.8411L52.0286 93.1272L57.5916 77.7768L59.4955 72.541C59.4955 72.541 60.7031 68.3429 61.2487 66.7183L61.578 64.5385L69.3722 65.4012C69.3722 65.4012 71.5491 68.5982 70.8877 73.8091L71.1868 93.3949L67.7062 93.5734L64.7908 73.8202L59.674 84.6488C59.674 84.6488 58.0613 89.2697 56.9074 90.2713L55.5092 93.8411Z" fill="#2F2E41"></path>
<path d="M66.2466 66.1283C66.3079 66.1269 66.3692 66.1302 66.43 66.1384L70.0661 62.0191L69.6431 60.753L71.4704 59.8649L72.437 62.0335C72.5151 62.2086 72.5342 62.4044 72.4916 62.5914C72.4489 62.7784 72.3468 62.9466 72.2004 63.0706L67.4312 67.1117C67.4675 67.345 67.432 67.5839 67.3293 67.7966C67.2266 68.0093 67.0615 68.1856 66.8561 68.3022C66.6507 68.4188 66.4147 68.4701 66.1795 68.4493C65.9442 68.4284 65.7209 68.3365 65.5392 68.1856C65.3574 68.0348 65.226 67.8322 65.1622 67.6048C65.0984 67.3774 65.1054 67.1359 65.1822 66.9126C65.259 66.6893 65.402 66.4946 65.5921 66.3545C65.7823 66.2144 66.0105 66.1355 66.2466 66.1283V66.1283Z" fill="#FFB7B7"></path>
<path d="M69.7757 62.42L68.2589 58.852L68.8505 56.3668L69.4879 55.5615C69.5346 55.5415 69.5849 55.5315 69.6357 55.5319C69.6865 55.5324 69.7366 55.5434 69.7829 55.5643C70.018 55.6589 70.2182 55.9488 70.3779 56.4261L71.7994 60.4752L69.7757 62.42Z" fill="#2F2E41"></path>
<path d="M61.9062 51.8601V49.1702C61.9062 48.2143 62.286 47.2975 62.962 46.6215C63.6379 45.9455 64.5547 45.5658 65.5107 45.5658C66.4666 45.5658 67.3834 45.9455 68.0594 46.6215C68.7354 47.2975 69.1151 48.2143 69.1151 49.1702V51.8601C69.115 51.9884 69.0639 52.1115 68.9731 52.2023C68.8824 52.293 68.7593 52.3441 68.6309 52.3442H62.3904C62.2621 52.3441 62.139 52.293 62.0482 52.2023C61.9575 52.1115 61.9064 51.9884 61.9062 51.8601V51.8601Z" fill="#2F2E41"></path>
<path d="M64.7701 52.2816C66.2296 52.2816 67.4127 51.0984 67.4127 49.639C67.4127 48.1795 66.2296 46.9963 64.7701 46.9963C63.3106 46.9963 62.1274 48.1795 62.1274 49.639C62.1274 51.0984 63.3106 52.2816 64.7701 52.2816Z" fill="#FFB7B7"></path>
<path d="M61.0536 49.3854C61.0544 48.6295 61.3551 47.9048 61.8896 47.3702C62.4242 46.8357 63.1489 46.535 63.9048 46.5342H64.4428C65.1988 46.535 65.9235 46.8357 66.458 47.3702C66.9925 47.9048 67.2932 48.6295 67.2941 49.3854V49.4392H66.1572L65.7694 48.3534L65.6918 49.4392H65.1043L64.9086 48.8914L64.8695 49.4392H61.0536L61.0536 49.3854Z" fill="#2F2E41"></path>
<path d="M64.5099 52.6467C64.4565 52.5744 64.4247 52.4885 64.418 52.3989C64.4113 52.3093 64.43 52.2197 64.472 52.1402C65.0421 51.0559 65.8403 49.0523 64.7808 47.8166L64.7047 47.7278H67.7805V52.3458L64.9863 52.8388C64.958 52.8438 64.9294 52.8463 64.9006 52.8463C64.8244 52.8463 64.7492 52.8282 64.6813 52.7935C64.6133 52.7588 64.5546 52.7085 64.5099 52.6467V52.6467Z" fill="#2F2E41"></path>
<path d="M28.6295 93.584L30.2617 94.1674L33.2885 88.1491L30.8795 87.2882L28.6295 93.584Z" fill="#9F616A"></path>
<path d="M27.6477 95.0175L28.4037 92.9023L31.6182 94.0511C32.1611 94.2458 32.6046 94.648 32.8514 95.1693C33.0982 95.6906 33.1281 96.2885 32.9347 96.8318L32.9109 96.8984L27.6477 95.0175Z" fill="#2F2E41"></path>
<path d="M39.2436 95.1984L40.9769 95.1983L41.8016 88.5125L39.2433 88.5126L39.2436 95.1984Z" fill="#9F616A"></path>
<path d="M38.8015 94.6325L42.2151 94.6323H42.2153C42.5009 94.6323 42.7838 94.6886 43.0478 94.7979C43.3117 94.9072 43.5515 95.0675 43.7535 95.2695C43.9556 95.4715 44.1158 95.7113 44.2251 95.9752C44.3345 96.2392 44.3907 96.522 44.3907 96.8077V96.8784L38.8016 96.8786L38.8015 94.6325Z" fill="#2F2E41"></path>
<path d="M35.2932 52.4842L36.0471 50.9946C36.0471 50.9946 38.8553 51.6982 39.1106 53.3259L35.2932 52.4842Z" fill="#F1F1F1"></path>
<path d="M32.1827 69.5164L34.2327 80.9564L28.7893 90.5829L32.0412 91.8554L37.5554 82.5239L38.2623 79.9789L38.6864 93.2693L41.6192 93.1802L42.9638 80.7703L40.8071 69.2336L32.1827 69.5164Z" fill="#2F2E41"></path>
<path d="M36.0742 72.2208C33.0626 72.2208 31.1504 71.6448 31.1076 71.6356L31.0382 71.6209L32.6069 64.3479L32.6775 57.6392C32.6775 54.7963 34.5486 52.7003 34.8083 52.5069C34.852 52.3343 34.9328 52.1734 35.0452 52.0353C35.1575 51.8972 35.2987 51.7853 35.4587 51.7074C36.0829 51.4242 36.8456 51.764 36.8777 51.7787L39.1668 52.6369L39.1776 52.6687C39.2051 52.75 42.2203 62.6483 42.2203 62.6483C42.2203 62.6483 42.0378 71.2969 41.9742 71.5802C41.9742 71.5802 37.7476 72.2208 36.0742 72.2208Z" fill="#3F3D56"></path>
<path d="M38.3884 50.5256C40.0971 50.5256 41.4823 49.1404 41.4823 47.4317C41.4823 45.7229 40.0971 44.3377 38.3884 44.3377C36.6796 44.3377 35.2944 45.7229 35.2944 47.4317C35.2944 49.1404 36.6796 50.5256 38.3884 50.5256Z" fill="#9F616A"></path>
<path opacity="0.2" d="M34.9387 58.1878L40.3516 65.74L41.1509 62.2132L34.9387 58.1878Z" fill="black"></path>
<path d="M51.9091 63.3264C51.7569 63.4468 51.5801 63.5324 51.3912 63.5771C51.2023 63.6218 51.0059 63.6245 50.8159 63.5851C50.6258 63.5457 50.4467 63.4651 50.2912 63.349C50.1356 63.2329 50.0074 63.0841 49.9156 62.9131L45.2566 63.6588L46.2659 61.4243L50.5355 61.0587C50.833 60.9235 51.1698 60.9022 51.482 60.9987C51.7942 61.0952 52.0602 61.3029 52.2295 61.5824C52.3988 61.8619 52.4597 62.1938 52.4007 62.5153C52.3416 62.8367 52.1667 63.1253 51.9091 63.3264H51.9091Z" fill="#9F616A"></path>
<path d="M46.5059 61.2972L48.1799 61.133L48.6438 63.4682L46.5373 63.5055L46.5059 61.2972Z" fill="#F1F1F1"></path>
<path d="M47.8782 64.2819L39.6795 63.5519L35.5397 56.9681L35.527 56.9099C35.4095 56.3721 35.4917 55.8099 35.7584 55.3283C36.0251 54.8466 36.4579 54.4785 36.9761 54.2927C37.4943 54.1068 38.0624 54.1159 38.5744 54.3183C39.0863 54.5206 39.5072 54.9023 39.7583 55.3922L42.1885 60.1325L47.093 60.8739L47.8782 64.2819Z" fill="#3F3D56"></path>
<path d="M35.7531 50.1179L38.3211 50.2101C38.4776 50.2157 38.9025 48.5264 38.9581 48.1759C39.002 47.9478 39.1275 47.7434 39.3111 47.601C39.4947 47.4587 39.7239 47.388 39.9558 47.4022C40.148 47.4204 40.6328 47.0612 41.133 46.636C42.0826 45.8286 42.0332 44.3123 40.99 43.6301C40.9615 43.6114 40.9335 43.5944 40.9061 43.579C40.248 43.2107 39.4781 43.087 38.724 43.0775C38.0404 43.069 37.3374 43.155 36.7352 43.4786C35.6555 44.0587 35.0809 45.3263 35.0304 46.551C34.9799 47.7756 35.3725 48.9731 35.818 50.1149" fill="#2F2E41"></path>
<path d="M100.128 97H0.134471C0.0988073 97 0.0646039 96.9859 0.0393856 96.9606C0.0141674 96.9354 0 96.9012 0 96.8656C0 96.8299 0.0141674 96.7957 0.0393856 96.7705C0.0646039 96.7452 0.0988073 96.7311 0.134471 96.7311H100.181C100.217 96.7311 100.251 96.7452 100.276 96.7705C100.301 96.7957 100.316 96.8299 100.316 96.8656C100.316 96.9398 100.202 97 100.128 97Z" fill="#CBCBCB"></path>
</g>
<defs>
<clipPath id="clip0">
<rect width="100.316" height="97" fill="white"></rect>
</clipPath>
</defs>
</svg>